# Blender 3.4.1
# www.blender.org
o Cube
v 1.000000 1.000000 -1.000000
v 1.000000 -1.000000 -1.000000
v 1.000000 1.000000 1.000000
v 1.000000 -1.000000 1.000000
v -1.000000 1.000000 -1.000000
v -1.000000 -1.000000 -1.000000
v -1.000000 1.000000 1.000000
v -1.000000 -1.000000 1.000000
v 0.000000 1.900000 0.000000
v -0.134861 0.000000 0.000000
v 0.134861 0.000000 0.000000
vn -0.0000 0.7433 -0.6690
vn -0.0000 -0.0000 1.0000
vn -0.7563 -0.0000 -0.6543
vn -0.0000 -1.0000 -0.0000
vn 0.7563 0.6543 -0.0000
vn -0.0000 -0.0000 -1.0000
vn -0.0000 0.7433 0.6690
vn 0.6690 0.7433 -0.0000
vn -0.6690 0.7433 -0.0000
vn -0.7563 -0.0000 0.6543
vn -0.7563 0.6543 -0.0000
vn -0.7563 -0.6543 -0.0000
vn 0.7563 -0.6543 -0.0000
vn 0.7563 -0.0000 0.6543
vn 0.7563 -0.0000 -0.6543
vt 0.250043 0.500000
vt 0.500000 0.500000
vt 0.250043 0.250043
vt 0.500000 0.250043
vt 0.000087 0.500000
vt 0.250043 0.749957
vt 0.749957 0.500000
vt 0.500000 0.749957
vt 0.250043 0.000087
vt 0.000087 0.250043
vt 0.250043 0.999914
vt 0.500000 0.000087
vt 0.749957 0.250043
vt 0.500000 0.999914
vt 0.125065 0.375022
vt 0.375022 0.874935
vt 0.375022 0.375022
s 0
f 1/1/1 5/5/1 9/15/1
f 4/4/2 3/3/2 7/9/2 8/12/2
f 8/14/3 7/11/3 10/16/3
f 6/7/4 2/2/4 4/4/4 8/13/4
f 2/2/5 11/17/5 4/4/5
f 6/8/6 5/6/6 1/1/6 2/2/6
f 3/3/7 9/15/7 7/10/7
f 9/15/8 3/3/8 1/1/8
f 7/10/9 9/15/9 5/5/9
f 6/8/10 10/16/10 5/6/10
f 10/16/11 6/8/11 8/14/11
f 5/6/12 10/16/12 7/11/12
f 3/3/13 11/17/13 1/1/13
f 1/1/14 11/17/14 2/2/14
f 4/4/15 11/17/15 3/3/15
