# Blender 3.4.1
# www.blender.org
o TestFish
v -0.000000 0.266134 -1.000000
v -0.000000 -0.687028 -1.000000
v -0.000000 0.353977 1.000000
v -0.000000 -0.956831 1.000000
v -0.000000 0.151577 -1.192667
v -0.000000 -0.580837 -1.192667
v -0.000000 0.000146 -1.362504
v -0.000000 -0.454505 -1.362504
v -0.000000 -0.178894 -1.432781
v -0.000000 -0.296381 -1.455370
v -0.000000 -0.740097 -0.777778
v -0.000000 -0.786139 -0.555556
v -0.000000 -0.840212 -0.333334
v -0.000000 -1.054779 0.111111
v -0.000000 -0.775536 0.333333
v -0.000000 -0.794471 0.555555
v -0.000000 -0.889707 0.777777
v -0.000000 0.675639 -0.555556
v -0.000000 0.549862 0.555555
v -0.000000 0.562857 0.777777
v -0.000000 0.429443 0.333333
v -0.000000 0.435523 0.111111
v -0.000000 0.543003 -0.111112
v -0.000000 0.663535 -0.333334
v -0.000000 0.426712 -0.777778
v -0.000000 -0.992674 -0.111112
v -0.000000 0.079292 1.199989
v -0.000000 -0.817080 1.199989
v -0.000000 0.153987 1.375883
v -0.000000 -0.529143 1.375883
v -0.000000 0.237115 1.566234
v -0.000000 -0.608657 1.566234
v -0.000000 0.100978 1.715624
v -0.000000 -0.664076 1.715624
v -0.000000 -0.131540 1.865014
v -0.000000 -0.574924 1.865014
v -0.000000 -0.333939 1.965008
v -0.000000 -0.423125 1.960189
v 0.208600 0.057715 -0.920942
v 0.208600 -0.489455 -0.920942
v 0.208600 0.108141 0.957362
v 0.208600 -0.644337 0.957362
v 0.208600 -0.008048 -1.101885
v 0.208600 -0.428495 -1.101885
v 0.208600 -0.094978 -1.261388
v 0.208600 -0.355973 -1.261388
v 0.208600 -0.197757 -1.327389
v 0.208600 -0.265201 -1.348603
v 0.208600 0.149896 -0.712241
v 0.208600 0.292794 -0.503541
v 0.208600 0.285845 -0.294841
v 0.208600 0.216653 -0.086140
v 0.208600 0.154953 0.122560
v 0.208600 0.151463 0.331261
v 0.208600 0.220591 0.539961
v 0.208600 0.228051 0.748661
v 0.208600 -0.605804 0.748661
v 0.208600 -0.551133 0.539961
v 0.208600 -0.540263 0.331261
v 0.208600 -0.700565 0.122560
v 0.208600 -0.664913 -0.086140
v 0.208600 -0.577391 -0.294841
v 0.208600 -0.546350 -0.503541
v 0.208600 -0.519919 -0.712241
v 0.208600 -0.049543 1.145182
v 0.208600 -0.564112 1.145182
v 0.208600 -0.006664 1.310374
v 0.208600 -0.398820 1.310374
v 0.208600 0.041056 1.489142
v 0.208600 -0.444465 1.489142
v 0.208600 -0.037094 1.629442
v 0.208600 -0.476279 1.629442
v 0.208600 -0.170573 1.769741
v 0.208600 -0.425101 1.769741
v 0.208600 -0.286761 1.863652
v 0.208600 -0.337959 1.859126
v -0.208600 0.057715 -0.920942
v -0.208600 -0.489455 -0.920942
v -0.208600 0.108141 0.957362
v -0.208600 -0.644337 0.957362
v -0.208600 -0.008048 -1.101885
v -0.208600 -0.428495 -1.101885
v -0.208600 -0.094978 -1.261388
v -0.208600 -0.355973 -1.261388
v -0.208600 -0.197757 -1.327389
v -0.208600 -0.265201 -1.348603
v -0.208600 -0.519919 -0.712241
v -0.208600 -0.546350 -0.503541
v -0.208600 -0.577391 -0.294841
v -0.208600 -0.664913 -0.086140
v -0.208600 -0.700564 0.122560
v -0.208600 -0.540263 0.331261
v -0.208600 -0.551133 0.539961
v -0.208600 -0.605804 0.748661
v -0.208600 0.228051 0.748661
v -0.208600 0.220591 0.539961
v -0.208600 0.151463 0.331261
v -0.208600 0.154953 0.122560
v -0.208600 0.216653 -0.086140
v -0.208600 0.285845 -0.294841
v -0.208600 0.292794 -0.503541
v -0.208600 0.149896 -0.712241
v -0.208600 -0.049543 1.145182
v -0.208600 -0.564112 1.145182
v -0.208600 -0.006664 1.310374
v -0.208600 -0.398820 1.310374
v -0.208600 0.041056 1.489142
v -0.208600 -0.444465 1.489142
v -0.208600 -0.037094 1.629442
v -0.208600 -0.476279 1.629442
v -0.208600 -0.170573 1.769741
v -0.208600 -0.425101 1.769741
v -0.208600 -0.286761 1.863652
v -0.208600 -0.337959 1.859126
vn -0.8500 -0.5138 -0.1165
vn -0.8457 0.5330 -0.0253
vn -0.7950 -0.5299 -0.2951
vn -0.6118 0.5281 0.5888
vn -0.5826 -0.4968 0.6432
vn -0.7710 0.5063 0.3863
vn -0.6073 0.6436 -0.4658
vn -0.7913 -0.5318 0.3017
vn -0.7744 -0.6207 -0.1226
vn -0.7500 -0.6523 -0.1097
vn -0.3653 0.4840 0.7952
vn -0.5707 -0.7863 -0.2368
vn -0.7238 -0.6774 -0.1313
vn -0.7625 0.5581 -0.3273
vn -0.5056 -0.5058 -0.6990
vn -0.4899 0.8242 -0.2841
vn -0.6592 0.6046 0.4472
vn -0.4916 0.3791 -0.7840
vn 0.4916 0.3791 -0.7840
vn 0.4509 -0.0593 0.8906
vn 0.8500 -0.5138 -0.1165
vn 0.7913 -0.5318 0.3017
vn 0.5056 -0.5058 -0.6990
vn 0.5173 0.5311 0.6710
vn 0.6974 -0.5017 0.5118
vn 0.4386 0.2071 -0.8745
vn 0.6762 -0.6630 0.3212
vn 0.7522 -0.6574 -0.0455
vn 0.6013 -0.6840 -0.4130
vn 0.7570 -0.6172 -0.2147
vn 0.6073 0.6436 -0.4658
vn 0.5707 -0.7863 -0.2368
vn 0.8030 -0.5788 -0.1419
vn 0.6592 0.6046 0.4472
vn 0.8457 0.5330 -0.0253
vn 0.6817 -0.6678 -0.2988
vn 1.0000 -0.0000 -0.0000
vn 0.6118 0.5281 0.5888
vn 0.7950 -0.5299 -0.2951
vn 0.3653 0.4840 0.7952
vn 0.7625 0.5581 -0.3273
vn 0.7744 -0.6207 -0.1226
vn 0.5826 -0.4968 0.6432
vn 0.8055 0.4384 -0.3986
vn 0.6164 -0.4735 0.6291
vn 0.7500 -0.6523 -0.1097
vn 0.8755 0.4828 0.0213
vn 0.4899 0.8242 -0.2841
vn 0.7710 0.5063 0.3863
vn 0.8291 0.5116 0.2253
vn 0.7238 -0.6774 -0.1313
vn 0.7976 0.5615 0.2204
vn 0.5689 0.7752 -0.2748
vn 0.8010 0.5985 0.0133
vn 0.4878 -0.8267 -0.2803
vn 0.6968 0.6460 -0.3118
vn 0.7961 0.5540 -0.2437
vn -1.0000 -0.0000 -0.0000
vn -0.8030 -0.5788 -0.1419
vn -0.6013 -0.6840 -0.4130
vn -0.7961 0.5540 -0.2437
vn -0.6974 -0.5017 0.5118
vn -0.5689 0.7752 -0.2748
vn -0.8010 0.5985 0.0133
vn -0.7522 -0.6574 -0.0455
vn -0.4878 -0.8267 -0.2803
vn -0.7976 0.5615 0.2204
vn -0.7570 -0.6172 -0.2147
vn -0.6762 -0.6630 0.3212
vn -0.4386 0.2071 -0.8745
vn -0.8291 0.5116 0.2253
vn -0.6968 0.6460 -0.3118
vn -0.8755 0.4828 0.0213
vn -0.5173 0.5311 0.6710
vn -0.8055 0.4384 -0.3986
vn -0.6817 -0.6678 -0.2988
vn -0.6164 -0.4735 0.6291
vn -0.4509 -0.0593 0.8906
vt 0.694053 0.770211
vt 0.709589 0.739985
vt 0.823779 0.499955
vt 0.812270 0.515177
vt 0.270535 0.428853
vt 0.252899 0.452511
vt 0.428350 0.085079
vt 0.409268 0.123137
vt 0.748797 0.771169
vt 0.761277 0.745139
vt 0.850899 0.563895
vt 0.842488 0.572927
vt 0.812079 0.736884
vt 0.803790 0.756686
vt 0.867074 0.631999
vt 0.862689 0.633435
vt 0.841580 0.722589
vt 0.845233 0.710212
vt 0.860903 0.692834
vt 0.861291 0.685858
vt 0.770975 0.463661
vt 0.784273 0.444309
vt 0.728886 0.415658
vt 0.743604 0.392806
vt 0.687695 0.367346
vt 0.703923 0.340858
vt 0.633033 0.214787
vt 0.611691 0.252103
vt 0.550229 0.229355
vt 0.534673 0.258237
vt 0.506100 0.190941
vt 0.490271 0.221345
vt 0.467944 0.134959
vt 0.450226 0.169644
vt 0.548875 0.789857
vt 0.574128 0.745612
vt 0.328157 0.572150
vt 0.350190 0.538846
vt 0.303615 0.505394
vt 0.281399 0.537930
vt 0.387364 0.585214
vt 0.406966 0.554882
vt 0.431744 0.623449
vt 0.451591 0.591639
vt 0.467656 0.685049
vt 0.489929 0.648048
vt 0.503142 0.750397
vt 0.528138 0.707684
vt 0.627719 0.772349
vt 0.647198 0.736609
vt 0.652435 0.300664
vt 0.672215 0.267067
vt 0.241140 0.343602
vt 0.229113 0.356649
vt 0.371788 0.080656
vt 0.355613 0.114825
vt 0.188406 0.332701
vt 0.201017 0.319561
vt 0.298291 0.100710
vt 0.287770 0.126466
vt 0.142467 0.304659
vt 0.155663 0.291546
vt 0.259730 0.061911
vt 0.248591 0.089678
vt 0.125678 0.244830
vt 0.135485 0.238186
vt 0.226372 0.033802
vt 0.215095 0.062598
vt 0.118876 0.157091
vt 0.122696 0.161341
vt 0.184225 0.037614
vt 0.175631 0.062586
vt 0.132983 0.085035
vt 0.130760 0.099785
vt 0.146030 0.063542
vt 0.141501 0.082122
vt 0.700870 0.679126
vt 0.764582 0.548536
vt 0.302330 0.381435
vt 0.393337 0.184369
vt 0.744612 0.688532
vt 0.791085 0.593884
vt 0.783118 0.690228
vt 0.810201 0.635692
vt 0.804973 0.676673
vt 0.814926 0.665851
vt 0.647371 0.669460
vt 0.587815 0.669939
vt 0.545713 0.634190
vt 0.510051 0.583178
vt 0.472709 0.532899
vt 0.429339 0.496730
vt 0.377701 0.477352
vt 0.333838 0.444668
vt 0.432533 0.228348
vt 0.471607 0.276316
vt 0.515923 0.313806
vt 0.579515 0.313595
vt 0.617627 0.358256
vt 0.650483 0.415778
vt 0.689330 0.460590
vt 0.727864 0.504194
vt 0.276546 0.308726
vt 0.346792 0.171478
vt 0.237591 0.283468
vt 0.289651 0.179637
vt 0.198122 0.259267
vt 0.253619 0.142468
vt 0.181456 0.217968
vt 0.227121 0.118093
vt 0.172067 0.165683
vt 0.196388 0.111807
vt 0.168425 0.129817
vt 0.173753 0.119722
vt 0.709398 0.661304
vt 0.759983 0.552756
vt 0.311979 0.370939
vt 0.383469 0.206728
vt 0.751327 0.672938
vt 0.788268 0.594288
vt 0.787758 0.677452
vt 0.809331 0.632158
vt 0.807380 0.667388
vt 0.815978 0.658761
vt 0.722139 0.511292
vt 0.682635 0.470327
vt 0.642751 0.428287
vt 0.607590 0.375665
vt 0.568408 0.333814
vt 0.508462 0.328979
vt 0.463952 0.292874
vt 0.423624 0.248072
vt 0.346282 0.428420
vt 0.390017 0.460309
vt 0.440115 0.481238
vt 0.483637 0.516119
vt 0.522500 0.562794
vt 0.559833 0.609976
vt 0.602130 0.644391
vt 0.658251 0.648675
vt 0.282383 0.305667
vt 0.338645 0.191843
vt 0.243817 0.280625
vt 0.285359 0.194429
vt 0.204842 0.256460
vt 0.248683 0.159258
vt 0.186126 0.219226
vt 0.221926 0.135967
vt 0.173474 0.173012
vt 0.192491 0.128074
vt 0.167433 0.141531
vt 0.171724 0.133171
s 0
f 26/51/1 14/28/1 91/129/1 90/128/1
f 20/39/2 19/38/2 96/134/2 95/133/2
f 13/25/3 26/51/3 90/128/3 89/127/3
f 27/53/4 3/5/4 79/117/4 103/141/4
f 36/72/5 38/76/5 114/152/5 112/150/5
f 3/5/6 20/39/6 95/133/6 79/117/6
f 5/10/7 7/13/7 83/121/7 81/119/7
f 4/8/8 28/56/8 104/142/8 80/118/8
f 12/23/9 13/25/9 89/127/9 88/126/9
f 11/21/10 12/23/10 88/126/10 87/125/10
f 37/74/11 35/70/11 111/149/11 113/151/11
f 32/64/12 34/68/12 110/148/12 108/146/12
f 2/4/13 11/21/13 87/125/13 78/116/13
f 25/50/14 1/2/14 77/115/14 102/140/14
f 10/20/15 8/16/15 84/122/15 86/124/15
f 29/58/16 27/53/16 103/141/16 105/143/16
f 33/66/17 31/62/17 107/145/17 109/147/17
f 7/13/18 9/18/18 85/123/18 83/121/18
f 9/17/19 7/14/19 45/83/19 47/85/19
f 37/73/20 38/75/20 76/114/20 75/113/20
f 14/27/21 26/52/21 61/99/21 60/98/21
f 28/55/22 4/7/22 42/80/22 66/104/22
f 8/15/23 10/19/23 48/86/23 46/84/23
f 33/65/24 35/69/24 73/111/24 71/109/24
f 15/29/25 14/27/25 60/98/25 59/97/25
f 10/19/26 9/17/26 47/85/26 48/86/26
f 36/71/27 34/67/27 72/110/27 74/112/27
f 16/31/28 15/29/28 59/97/28 58/96/28
f 6/11/29 8/15/29 46/84/29 44/82/29
f 17/33/30 16/31/30 58/96/30 57/95/30
f 7/14/31 5/9/31 43/81/31 45/83/31
f 34/67/32 32/63/32 70/108/32 72/110/32
f 4/7/33 17/33/33 57/95/33 42/80/33
f 31/61/34 33/65/34 71/109/34 69/107/34
f 19/37/35 20/40/35 56/94/35 55/93/35
f 2/3/36 6/11/36 44/82/36 40/78/36
f 57/95/37 56/94/37 41/79/37 42/80/37
f 39/77/37 40/78/37 44/82/37 43/81/37
f 45/83/37 46/84/37 48/86/37 47/85/37
f 43/81/37 44/82/37 46/84/37 45/83/37
f 40/78/37 39/77/37 49/87/37 64/102/37
f 64/102/37 49/87/37 50/88/37 63/101/37
f 63/101/37 50/88/37 51/89/37 62/100/37
f 62/100/37 51/89/37 52/90/37 61/99/37
f 61/99/37 52/90/37 53/91/37 60/98/37
f 60/98/37 53/91/37 54/92/37 59/97/37
f 59/97/37 54/92/37 55/93/37 58/96/37
f 58/96/37 55/93/37 56/94/37 57/95/37
f 42/80/37 41/79/37 65/103/37 66/104/37
f 68/106/37 67/105/37 69/107/37 70/108/37
f 66/104/37 65/103/37 67/105/37 68/106/37
f 70/108/37 69/107/37 71/109/37 72/110/37
f 72/110/37 71/109/37 73/111/37 74/112/37
f 74/112/37 73/111/37 75/113/37 76/114/37
f 3/6/38 27/54/38 65/103/38 41/79/38
f 26/52/39 13/26/39 62/100/39 61/99/39
f 35/69/40 37/73/40 75/113/40 73/111/40
f 1/1/41 25/49/41 49/87/41 39/77/41
f 13/26/42 12/24/42 63/101/42 62/100/42
f 38/75/43 36/71/43 74/112/43 76/114/43
f 25/49/44 18/35/44 50/88/44 49/87/44
f 30/59/45 28/55/45 66/104/45 68/106/45
f 12/24/46 11/22/46 64/102/46 63/101/46
f 18/35/47 24/47/47 51/89/47 50/88/47
f 27/54/48 29/57/48 67/105/48 65/103/48
f 20/40/49 3/6/49 41/79/49 56/94/49
f 24/47/50 23/45/50 52/90/50 51/89/50
f 11/22/51 2/3/51 40/78/51 64/102/51
f 23/45/52 22/43/52 53/91/52 52/90/52
f 29/57/53 31/61/53 69/107/53 67/105/53
f 22/43/54 21/41/54 54/92/54 53/91/54
f 32/63/55 30/59/55 68/106/55 70/108/55
f 5/9/56 1/1/56 39/77/56 43/81/56
f 21/41/57 19/37/57 55/93/57 54/92/57
f 87/125/58 102/140/58 77/115/58 78/116/58
f 78/116/58 77/115/58 81/119/58 82/120/58
f 82/120/58 81/119/58 83/121/58 84/122/58
f 84/122/58 83/121/58 85/123/58 86/124/58
f 80/118/58 79/117/58 95/133/58 94/132/58
f 94/132/58 95/133/58 96/134/58 93/131/58
f 93/131/58 96/134/58 97/135/58 92/130/58
f 92/130/58 97/135/58 98/136/58 91/129/58
f 91/129/58 98/136/58 99/137/58 90/128/58
f 90/128/58 99/137/58 100/138/58 89/127/58
f 89/127/58 100/138/58 101/139/58 88/126/58
f 88/126/58 101/139/58 102/140/58 87/125/58
f 79/117/58 80/118/58 104/142/58 103/141/58
f 103/141/58 104/142/58 106/144/58 105/143/58
f 105/143/58 106/144/58 108/146/58 107/145/58
f 107/145/58 108/146/58 110/148/58 109/147/58
f 109/147/58 110/148/58 112/150/58 111/149/58
f 111/149/58 112/150/58 114/152/58 113/151/58
f 17/34/59 4/8/59 80/118/59 94/132/59
f 8/16/60 6/12/60 82/120/60 84/122/60
f 19/38/61 21/42/61 97/135/61 96/134/61
f 14/28/62 15/30/62 92/130/62 91/129/62
f 31/62/63 29/58/63 105/143/63 107/145/63
f 21/42/64 22/44/64 98/136/64 97/135/64
f 15/30/65 16/32/65 93/131/65 92/130/65
f 30/60/66 32/64/66 108/146/66 106/144/66
f 22/44/67 23/46/67 99/137/67 98/136/67
f 16/32/68 17/34/68 94/132/68 93/131/68
f 34/68/69 36/72/69 112/150/69 110/148/69
f 9/18/70 10/20/70 86/124/70 85/123/70
f 23/46/71 24/48/71 100/138/71 99/137/71
f 1/2/72 5/10/72 81/119/72 77/115/72
f 24/48/73 18/36/73 101/139/73 100/138/73
f 35/70/74 33/66/74 109/147/74 111/149/74
f 18/36/75 25/50/75 102/140/75 101/139/75
f 6/12/76 2/4/76 78/116/76 82/120/76
f 28/56/77 30/60/77 106/144/77 104/142/77
f 38/76/78 37/74/78 113/151/78 114/152/78
